<svg width="512" height="512" viewBox="0 0 512 512" fill="none" xmlns="http://www.w3.org/2000/svg">
  <!-- Background -->
  <rect width="512" height="512" fill="#000000"/>
  
  <!-- Outer hexagon - darker brown -->
  <path d="M256 40 L456 150 L456 362 L256 472 L56 362 L56 150 Z" fill="#5D3A1A"/>
  
  <!-- Left face of outer hexagon -->
  <path d="M256 40 L56 150 L56 362 L256 256 Z" fill="#8B5A2B"/>
  
  <!-- Right face of outer hexagon -->
  <path d="M256 40 L456 150 L456 362 L256 256 Z" fill="#6B4423"/>
  
  <!-- Inner hexagon - bright orange -->
  <path d="M256 140 L356 200 L356 312 L256 372 L156 312 L156 200 Z" fill="#FF8C42"/>
  
  <!-- Left face of inner hexagon -->
  <path d="M256 140 L156 200 L156 312 L256 256 Z" fill="#FFB366"/>
  
  <!-- Right face of inner hexagon -->
  <path d="M256 140 L356 200 L356 312 L256 256 Z" fill="#E67A2E"/>
  
  <!-- Bottom face of outer hexagon -->
  <path d="M256 472 L56 362 L256 256 L456 362 Z" fill="#4A2F17"/>
  
  <!-- Bottom face of inner hexagon -->
  <path d="M256 372 L156 312 L256 256 L356 312 Z" fill="#CC6B2E"/>
</svg>

